<?xml version="1.0" encoding="UTF-8"?>
<!-- Created with Inkscape (http://www.inkscape.org/) -->
<svg width="64" height="64" version="1.1" viewBox="0 0 16.933 16.933" xmlns="http://www.w3.org/2000/svg">
 <defs>
  <linearGradient id="rainbow" x1="2.3727" x2="14.899" y1="1.8505" y2="1.8505" gradientTransform="matrix(1.9196 0 0 1.9196 -4.6065 -15.813)" gradientUnits="userSpaceOnUse">
   <stop stop-color="red" offset="0"/>
   <stop stop-color="#ff0" offset=".333"/>
   <stop stop-color="#0f0" offset=".5"/>
   <stop stop-color="cyan" offset=".666"/>
   <stop stop-color="blue" offset=".833"/>
   <stop stop-color="#f0f" offset="1"/>
  </linearGradient>
  <clipPath id="clipPath11">
   <rect transform="rotate(-46.136)" width="16.909" height="16.909" rx="0" ry="2.9436" style="stroke-linecap:round;stroke-linejoin:round;stroke-width:.26888"/>
  </clipPath>
 </defs>
 <rect transform="rotate(46.136)" x="-.051856" y="-12.261" width="24.046" height="24.046" clip-path="url(#clipPath11)" style="fill:url(#rainbow);stroke-linecap:round;stroke-linejoin:round;stroke-width:.5079"/>
 <g transform="matrix(1.0915 0 0 1.0915 -.77474 -.29651)">
  <path d="m13.961 4.2832q-0.02205 0.74965-0.27561 1.3119-0.24254 0.56224-0.62839 0.94809-0.38585 0.37483-0.89297 0.57326-0.50712 0.18741-1.0363 0.18741t-0.91502-0.11024q-0.38585-0.12127-0.68351-0.30868-0.29766-0.19844-0.52917-0.44097-0.22049-0.24254-0.42995-0.49609-0.19844-0.25356-0.38585-0.47405t-0.38585-0.38585q-0.19844-0.17639-0.42995-0.27561-0.23151-0.099219-0.52917-0.099219-0.37483 0-0.63941 0.16536-0.25356 0.15434-0.41892 0.41892-0.16536 0.26458-0.24254 0.60634-0.066146 0.34175-0.066146 0.7276 0 0.19844-0.18741 0.26458-0.18741 0.055122-0.54019 0.055122-0.22049 0-0.3638-0.022049-0.13229-0.022049-0.22049-0.055122-0.07717-0.044097-0.11024-0.11024-0.022049-0.066146-0.022049-0.14332v-0.29766q0-0.76068 0.20946-1.3339 0.20946-0.58429 0.58429-0.97014 0.37483-0.39688 0.89297-0.59531 0.52917-0.19844 1.1465-0.19844 0.51814 0 0.90399 0.12127 0.39688 0.11024 0.69453 0.29766 0.29766 0.18741 0.52917 0.42995 0.23151 0.23151 0.42995 0.48507t0.37483 0.47405q0.18741 0.22049 0.38585 0.39688 0.19844 0.16536 0.42995 0.26458 0.23151 0.099219 0.54019 0.099219 0.3638 0 0.61736-0.14332 0.26458-0.14332 0.42995-0.39688 0.16536-0.26458 0.24254-0.61736 0.07717-0.35278 0.07717-0.7717 0-0.17639 0.17639-0.23151 0.18741-0.066146 0.54019-0.066146 0.20946 0 0.35278 0.022049 0.14332 0.011024 0.23151 0.055122 0.0882 0.044097 0.12127 0.11024 0.03307 0.066146 0.02205 0.16536z" style="stroke-linecap:round;stroke-linejoin:round;stroke-width:.26458" aria-label="~"/>
  <path d="m12.903 9.8115q-0.02205 0.74965-0.27561 1.3119-0.24254 0.56224-0.62839 0.94809-0.38585 0.37483-0.89297 0.57326-0.50712 0.18741-1.0363 0.18741-0.52917 0-0.91502-0.11024-0.38585-0.12127-0.68351-0.30868-0.29766-0.19844-0.52917-0.44097-0.22049-0.24254-0.42995-0.49609-0.19844-0.25356-0.38585-0.47405-0.18741-0.22049-0.38585-0.38585-0.19844-0.17639-0.42995-0.27561-0.23151-0.09922-0.52917-0.09922-0.37483 0-0.63941 0.16536-0.25356 0.15434-0.41892 0.41892-0.16536 0.26458-0.24254 0.60634-0.066146 0.34175-0.066146 0.7276 0 0.19844-0.18741 0.26458-0.18741 0.05512-0.54019 0.05512-0.22049 0-0.3638-0.02205-0.13229-0.02205-0.22049-0.05512-0.07717-0.0441-0.11024-0.11024-0.022049-0.06615-0.022049-0.14332v-0.29766q0-0.76068 0.20946-1.3339 0.20946-0.58429 0.58429-0.97014 0.37483-0.39688 0.89297-0.59531 0.52917-0.19844 1.1465-0.19844 0.51814 0 0.90399 0.12127 0.39688 0.11024 0.69453 0.29766 0.29766 0.18741 0.52917 0.42995 0.23151 0.23151 0.42995 0.48507 0.19844 0.25356 0.37483 0.47405 0.18741 0.22049 0.38585 0.39688 0.19844 0.16536 0.42995 0.26458 0.23151 0.09922 0.54019 0.09922 0.3638 0 0.61736-0.14332 0.26458-0.14332 0.42995-0.39688 0.16536-0.26458 0.24254-0.61736 0.07717-0.35278 0.07717-0.7717 0-0.17639 0.17639-0.23151 0.18741-0.066146 0.54019-0.066146 0.20946 0 0.35278 0.022049 0.14332 0.011024 0.23151 0.055122 0.08819 0.044097 0.12127 0.11024 0.03307 0.066146 0.02205 0.16536z" style="stroke-linecap:round;stroke-linejoin:round;stroke-width:.26458" aria-label="~"/>
 </g>
</svg>
